<?xml version="1.0" standalone="no"?><!DOCTYPE svg PUBLIC "-//W3C//DTD SVG 1.1//EN" "http://www.w3.org/Graphics/SVG/1.1/DTD/svg11.dtd"><svg class="icon" width="1000px" height="1000.00px" viewBox="0 0 1024 1024" version="1.1" xmlns="http://www.w3.org/2000/svg"><path fill="#606266" d="M640 608h-64v-192h64v192z m0 160v160q0 14.016-8.992 23.008T608 960h-192q-14.016 0-23.008-8.992T384 928v-160h64v128h128v-128h64z m-256-160v-192h64v192h-64z m256-352h-64V128h-128v128h-64V96q0-14.016 8.992-23.008T416 64h192q14.016 0 23.008 8.992T640 96v160zM220.992 256l-71.008 80L220.992 416H768V256H220.992z m-14.976-64h594.016q14.016 0 23.008 8.992t8.992 23.008v224q0 14.016-8.992 23.008t-23.008 8.992H206.016q-14.016 0-24-11.008l-99.008-112q-8-8.992-8-20.992t8-20.992l99.008-112Q192.032 192 206.016 192z m678.976 496L813.984 768H266.976v-160h547.008zM828 544H235.008q-14.016 0-23.008 8.992T203.008 576v224q0 14.016 8.992 23.008t23.008 8.992h592.992q15.008 0 24-11.008l100-112q8-8.992 8-20.992t-8-20.992l-100-112q-8.992-11.008-24-11.008z" /></svg>