<?xml version="1.0" standalone="no"?><!DOCTYPE svg PUBLIC "-//W3C//DTD SVG 1.1//EN" "http://www.w3.org/Graphics/SVG/1.1/DTD/svg11.dtd"><svg class="icon" width="1000px" height="1000.00px" viewBox="0 0 1024 1024" version="1.1" xmlns="http://www.w3.org/2000/svg"><path fill="#606266" d="M512 896q136-3.008 226.496-93.504T832 576q-3.008-136-93.504-226.496T512 256q-136 3.008-226.496 93.504T192 576q3.008 136 93.504 226.496T512 896z m0 64q-163.008-4-271.488-112.512T128 576q4-163.008 112.512-271.488T512 192q163.008 4 271.488 112.512T896 576q-4 163.008-112.512 271.488T512 960z m0-640q14.016 0 23.008 8.992T544 352l-0.992 224q0 14.016-8.992 23.008t-22.496 8.992-22.496-8.992-10.016-23.008L480 352q0-14.016 8.992-23.008T512 320z m-64 256q0.992 27.008 19.008 44.992t44.992 18.016 44.992-18.016 18.016-44.992-18.016-44.992T512 512.992t-44.992 18.016T448 576z m96-448v128h-64V128h-96q-14.016 0-23.008-8.992T352 96t8.992-23.008T384 64h256q14.016 0 23.008 8.992T672 96t-8.992 23.008T640 128h-96z" /></svg>